<?xml version="1.0" standalone="no"?>
<!DOCTYPE svg PUBLIC "-//W3C//DTD SVG 20010904//EN"
 "http://www.w3.org/TR/2001/REC-SVG-20010904/DTD/svg10.dtd">
<svg version="1.0" xmlns="http://www.w3.org/2000/svg"
 width="593.000000pt" height="592.000000pt" viewBox="0 0 593.000000 592.000000"
 preserveAspectRatio="xMidYMid meet">

<g transform="translate(0.000000,592.000000) scale(0.100000,-0.100000)"
fill="#000000" stroke="none">
<path d="M2695 5904 c-16 -2 -84 -11 -150 -20 -137 -18 -319 -55 -415 -85
-455 -140 -847 -365 -1174 -672 l-120 -112 290 -5 289 -5 6 -70 c3 -38 3 -76
1 -82 -3 -10 -86 -13 -368 -13 -363 0 -363 0 -386 -22 -30 -30 -87 -103 -90
-117 -2 -8 112 -12 417 -14 l420 -2 5 -73 c3 -41 2 -79 -2 -85 -5 -9 -141 -13
-489 -17 l-482 -5 -38 -60 c-21 -33 -38 -66 -38 -72 -1 -10 110 -13 523 -13
l524 0 4 -76 c2 -47 -1 -79 -8 -85 -6 -5 -258 -10 -574 -11 l-563 -3 -32 -75
c-57 -133 -165 -485 -165 -537 0 -10 58 -13 254 -13 l255 0 6 -42 c4 -24 5
-61 3 -83 l-3 -40 -266 -3 c-197 -2 -269 -6 -277 -15 -5 -6 -12 -40 -15 -74
l-7 -63 275 0 275 0 10 -26 c6 -14 10 -50 10 -79 0 -43 -4 -56 -19 -65 -12 -6
-123 -10 -290 -10 l-271 0 0 -70 0 -70 280 0 280 0 10 -26 c14 -36 12 -128 -2
-142 -9 -9 -86 -12 -286 -12 l-274 0 6 -57 c19 -166 71 -427 107 -540 l11 -33
640 0 641 0 -7 -37 c-3 -21 -6 -59 -6 -85 l0 -48 -599 0 c-330 0 -602 -3 -604
-7 -2 -5 7 -37 22 -73 l26 -65 575 -5 575 -5 3 -82 3 -83 -524 0 c-288 0 -527
-3 -530 -7 -5 -5 52 -124 68 -141 2 -2 218 -3 481 -3 264 0 485 -3 492 -8 9
-5 12 -30 10 -87 l-3 -79 -427 -3 c-236 -1 -428 -6 -428 -10 1 -8 8 -18 60
-83 143 -178 264 -306 411 -433 129 -110 131 -113 194 -156 28 -19 52 -38 55
-41 12 -15 244 -154 342 -204 235 -121 555 -230 804 -274 306 -55 765 -53
1074 5 132 24 380 95 495 142 281 113 408 180 635 338 353 244 655 575 877
962 297 516 442 1226 363 1768 -94 636 -283 1079 -658 1544 -121 150 -316 338
-477 459 -44 34 -86 66 -93 72 -39 33 -269 168 -380 223 -127 64 -358 156
-485 195 -78 24 -264 62 -417 87 -99 16 -582 29 -665 18z m1428 -1231 c-7 -2
-21 -2 -30 0 -10 3 -4 5 12 5 17 0 24 -2 18 -5z m160 0 c-24 -2 -62 -2 -85 0
-24 2 -5 4 42 4 47 0 66 -2 43 -4z m-250 -10 c-7 -2 -19 -2 -25 0 -7 3 -2 5
12 5 14 0 19 -2 13 -5z m410 0 c-7 -2 -21 -2 -30 0 -10 3 -4 5 12 5 17 0 24
-2 18 -5z m-656 -49 c-3 -3 -12 -4 -19 -1 -8 3 -5 6 6 6 11 1 17 -2 13 -5z
m-74 -21 c-7 -2 -19 -2 -25 0 -7 3 -2 5 12 5 14 0 19 -2 13 -5z m2048 -872 c9
-22 15 -42 12 -45 -7 -6 -43 68 -43 87 0 16 12 1 31 -42z m-4352 -320 c12 -16
21 -34 21 -41 0 -7 6 -26 14 -43 8 -18 22 -57 31 -87 31 -96 56 -160 64 -160
5 0 11 13 14 29 4 16 15 49 26 73 10 24 32 86 47 138 15 52 32 101 37 108 5 6
31 12 58 12 37 0 51 -4 58 -18 10 -18 5 -57 -9 -77 -4 -5 -24 -59 -45 -120
-21 -60 -60 -172 -87 -247 -46 -127 -52 -137 -79 -143 -56 -13 -75 6 -113 112
-8 21 -20 52 -27 68 -7 17 -13 32 -14 35 -3 13 -46 122 -54 137 -12 23 -71
215 -71 230 0 15 17 21 67 22 35 1 45 -4 62 -28z m857 4 c10 -40 -3 -72 -31
-77 -14 -3 -77 -3 -140 0 l-115 5 0 -58 0 -58 114 6 c135 7 149 1 144 -58 l-3
-40 -127 -3 -128 -3 0 -95 0 -96 140 7 c106 5 144 4 155 -5 19 -15 20 -74 2
-88 -16 -13 -405 -18 -418 -5 -6 6 -13 370 -9 544 0 42 28 48 227 48 l183 1 6
-25z m-1065 -11 c14 -38 3 -64 -29 -65 -15 -1 -79 -4 -142 -8 l-115 -6 -3 -46
-3 -47 126 -4 c138 -4 147 -8 143 -63 l-3 -30 -130 -5 -130 -5 -3 -87 -3 -88
144 0 c161 0 171 -4 165 -62 l-3 -33 -75 -8 c-41 -5 -135 -6 -207 -2 l-133 7
0 284 0 283 53 4 c28 2 116 4 195 5 l142 2 11 -26z m1256 20 c14 -3 58 -56
132 -161 105 -151 154 -213 165 -213 3 0 7 84 8 188 l3 187 55 0 55 0 2 -275
c2 -163 -1 -281 -7 -290 -13 -21 -106 -16 -132 7 -11 10 -51 59 -88 108 -37
50 -81 105 -99 122 -17 18 -31 37 -31 43 0 5 -5 10 -10 10 -7 0 -10 -50 -9
-144 0 -80 -2 -150 -6 -155 -9 -16 -105 -14 -110 2 -8 27 -14 541 -5 556 9 17
37 23 77 15z m969 -20 c4 -15 3 -39 -2 -53 -9 -24 -14 -26 -77 -29 -44 -2 -67
-7 -67 -15 0 -7 -2 -111 -3 -232 l-2 -219 -30 -9 c-18 -5 -41 -4 -57 2 l-28
11 0 229 0 229 -71 4 c-47 2 -73 8 -79 18 -11 17 -13 74 -3 83 3 4 98 7 209 7
l204 0 6 -26z m355 12 c19 -8 44 -25 55 -38 40 -43 69 -118 45 -118 -5 0 -22
-3 -40 -6 -26 -6 -35 -1 -62 27 -27 29 -38 34 -94 37 -58 4 -64 2 -79 -20 -9
-14 -14 -32 -11 -39 6 -17 54 -43 105 -58 19 -6 58 -17 86 -26 73 -22 124 -82
124 -145 0 -156 -226 -238 -368 -133 -38 28 -59 65 -64 113 l-3 35 46 3 c44 3
48 1 68 -33 28 -48 77 -68 132 -56 57 13 74 32 70 82 -1 20 -24 31 -135 65
-121 37 -148 62 -154 142 -6 81 22 132 87 161 55 24 144 27 192 7z m364 2 c2
-7 6 -51 9 -98 2 -47 5 -87 5 -89 2 -6 260 4 266 11 4 4 8 46 8 95 l2 88 52 3
c52 3 52 3 58 -30 3 -18 5 -145 3 -283 l-3 -250 -26 -9 c-14 -5 -38 -6 -53 -2
l-26 6 0 140 0 140 -140 0 -140 0 0 -140 c0 -139 0 -141 -24 -150 -13 -5 -37
-5 -53 -1 l-28 7 -6 110 c-9 153 -10 449 -2 457 12 12 93 8 98 -5z m616 10 c1
-2 4 -98 8 -215 6 -206 7 -212 30 -237 35 -37 94 -36 118 1 15 23 18 53 19
208 2 275 -3 245 48 245 26 0 48 -6 56 -15 9 -10 11 -71 8 -227 -3 -184 -6
-218 -22 -248 -39 -75 -86 -96 -199 -88 -74 4 -116 29 -143 85 -15 31 -19 76
-25 258 -4 121 -5 223 -3 227 5 7 102 12 105 6z m744 -25 c41 -22 63 -49 71
-89 8 -44 0 -76 -30 -111 -24 -29 -24 -29 -4 -42 32 -20 61 -97 55 -148 -8
-69 -46 -117 -114 -143 -48 -18 -79 -22 -177 -21 -66 0 -123 4 -128 9 -5 5
-10 133 -11 283 l-2 274 50 7 c80 10 255 -1 290 -19z m-4228 -695 c-3 -8 -6
-5 -6 6 -1 11 2 17 5 13 3 -3 4 -12 1 -19z m80 -400 c-3 -8 -6 -5 -6 6 -1 11
2 17 5 13 3 -3 4 -12 1 -19z m3493 -1222 c0 -3 -4 -8 -10 -11 -5 -3 -10 -1
-10 4 0 6 5 11 10 11 6 0 10 -2 10 -4z m-84 -71 c-11 -8 -25 -15 -30 -15 -6 1
0 7 14 15 32 19 40 18 16 0z m-369 -181 c-3 -3 -12 -4 -19 -1 -8 3 -5 6 6 6
11 1 17 -2 13 -5z m-142 -44 c-3 -5 -14 -10 -23 -10 -15 0 -15 2 -2 10 20 13
33 13 25 0z m-142 -37 c-7 -2 -19 -2 -25 0 -7 3 -2 5 12 5 14 0 19 -2 13 -5z
m-685 -60 c-10 -2 -26 -2 -35 0 -10 3 -2 5 17 5 19 0 27 -2 18 -5z m138 -11
c-21 -2 -42 0 -47 5 -4 4 13 6 39 3 l47 -5 -39 -3z m177 11 c-13 -2 -33 -2
-45 0 -13 2 -3 4 22 4 25 0 35 -2 23 -4z"/>
<path d="M1535 2900 c3 -5 8 -10 11 -10 2 0 4 5 4 10 0 6 -5 10 -11 10 -5 0
-7 -4 -4 -10z"/>
<path d="M1920 3168 c0 -5 28 -7 63 -7 67 1 60 6 -15 11 -27 2 -48 0 -48 -4z"/>
<path d="M963 3363 c37 -2 96 -2 130 0 34 2 4 3 -68 3 -71 0 -99 -1 -62 -3z"/>
<path d="M860 3165 c0 -6 48 -9 132 -7 96 3 126 6 109 13 -32 13 -241 7 -241
-6z"/>
<path d="M855 2890 c4 -6 66 -9 158 -9 116 1 139 4 97 9 -84 12 -262 12 -255
0z"/>
<path d="M2823 3320 c0 -25 2 -35 4 -22 2 12 2 32 0 45 -2 12 -4 2 -4 -23z"/>
<path d="M2440 3330 c0 -5 5 -10 10 -10 6 0 10 5 10 10 0 6 -4 10 -10 10 -5 0
-10 -4 -10 -10z"/>
<path d="M2823 3130 c0 -41 2 -58 4 -37 2 20 2 54 0 75 -2 20 -4 3 -4 -38z"/>
<path d="M2784 2901 c11 -11 23 -21 28 -21 14 0 -1 19 -25 31 -22 12 -22 12
-3 -10z"/>
<path d="M3047 3368 c-15 -9 160 -14 258 -7 44 3 73 7 65 8 -32 7 -312 6 -323
-1z"/>
<path d="M3222 3320 c0 -14 2 -19 5 -12 2 6 2 18 0 25 -3 6 -5 1 -5 -13z"/>
<path d="M3223 3055 c0 -22 2 -30 4 -17 2 12 2 30 0 40 -3 9 -5 -1 -4 -23z"/>
<path d="M3223 2920 c0 -25 2 -35 4 -22 2 12 2 32 0 45 -2 12 -4 2 -4 -23z"/>
<path d="M3623 3369 c-17 -5 -41 -21 -52 -35 -31 -40 -25 -49 8 -12 24 27 36
32 87 35 45 3 68 0 97 -16 22 -11 37 -14 34 -8 -6 20 -70 47 -107 46 -19 0
-49 -5 -67 -10z"/>
<path d="M3542 3260 c0 -14 2 -19 5 -12 2 6 2 18 0 25 -3 6 -5 1 -5 -13z"/>
<path d="M3791 2924 c-27 -19 -46 -24 -98 -24 -35 0 -73 5 -85 11 -11 6 -22 8
-25 5 -9 -9 48 -28 97 -33 50 -5 105 14 134 46 24 26 20 25 -23 -5z"/>
<path d="M4838 2883 c7 -3 16 -2 19 1 4 3 -2 6 -13 5 -11 0 -14 -3 -6 -6z"/>
<path d="M5277 3324 c-4 -4 -7 -34 -7 -66 l0 -58 71 0 c39 0 79 4 89 10 27 14
41 62 26 91 -10 22 -19 24 -92 27 -44 1 -83 0 -87 -4z"/>
<path d="M5491 3210 c-13 -11 -19 -20 -14 -20 6 0 18 9 28 20 23 25 17 25 -14
0z"/>
<path d="M5415 3165 l-30 -13 27 -1 c15 -1 30 4 33 10 11 17 2 18 -30 4z"/>
<path d="M5221 3135 c1 -40 1 -40 10 -10 5 18 5 33 -1 39 -7 7 -10 -4 -9 -29z"/>
<path d="M5280 3019 l0 -92 75 5 c67 5 78 8 100 34 20 22 25 38 23 69 -3 35
-8 42 -38 57 -22 12 -58 18 -97 18 l-63 0 0 -91z"/>
<path d="M5510 2950 c-6 -11 -23 -26 -38 -34 -15 -9 -22 -15 -17 -16 16 0 54
29 65 51 6 10 8 19 6 19 -3 0 -10 -9 -16 -20z"/>
<path d="M5230 2891 c0 -7 30 -11 82 -11 45 0 78 3 75 6 -12 12 -157 16 -157
5z"/>
<path d="M5408 2893 c6 -2 18 -2 25 0 6 3 1 5 -13 5 -14 0 -19 -2 -12 -5z"/>
</g>
</svg>
